<svg id="Capa_1" enable-background="new 0 0 512 512" height="512" viewBox="0 0 512 512" width="512" xmlns="http://www.w3.org/2000/svg"><path d="m256 144.298-118.405 205.083h236.81z" fill="#fce25c"/><path d="m256 144.298-23.458 40.631 94.947 164.453h46.916z" fill="#fbd307"/><path d="m167.6 190.509h177.121c3.699 0 7.323-1.077 10.415-3.107 31.755-20.84 58.874-45.559 58.874-69.212 0-57.069-70.672-78.445-157.849-78.445s-157.85 21.376-157.85 78.445c0 23.654 27.118 48.373 58.874 69.212 3.093 2.03 6.716 3.107 10.415 3.107z" fill="#a698a6"/><path d="m367.848 57.599c7.455 9.81 11.573 21.487 11.573 35.245 0 23.654-27.118 48.373-58.874 69.213-3.093 2.03-6.716 3.107-10.415 3.107h-177.121c-2.432 0-4.828-.474-7.065-1.37 9.139 8.214 19.888 16.161 31.239 23.61 3.093 2.03 6.716 3.107 10.415 3.107h177.121c3.699 0 7.323-1.077 10.415-3.107 31.755-20.84 58.874-45.559 58.874-69.212 0-28.513-17.639-48.114-46.162-60.593z" fill="#8f818f"/><path d="m425.264 154.214h-339.78c-10.351 0-20.607-1.982-30.213-5.839l-51.654-20.742c-4.823-1.937-4.823-8.765 0-10.701l51.654-20.741c9.606-3.857 19.862-5.839 30.213-5.839h339.78c10.129 0 20.168 1.898 29.598 5.595l53.477 20.968c4.882 1.914 4.882 8.822 0 10.736l-53.477 20.968c-9.43 3.697-19.469 5.595-29.598 5.595z" fill="#e0dde2"/><path d="m508.339 116.915-11.628-4.559-44.66 17.511c-9.43 3.697-19.469 5.595-29.598 5.595h-339.78c-10.351 0-20.607-1.982-30.213-5.839l-40.223-16.151-8.62 3.461c-4.823 1.937-4.823 8.765 0 10.701l51.654 20.741c9.606 3.857 19.862 5.839 30.213 5.839h339.78c10.129 0 20.168-1.898 29.598-5.595l53.477-20.968c4.881-1.914 4.881-8.822 0-10.736z" fill="#c8c1c9"/><g fill="#fc840d"><path d="m76.407 119.345c-.517 0-1.033-.053-1.55-.159-.506-.095-1.001-.253-1.476-.443-.475-.2-.938-.443-1.37-.727-.432-.295-.833-.622-1.202-.991-1.466-1.466-2.309-3.511-2.309-5.588s.843-4.122 2.309-5.588c.369-.369.77-.695 1.202-.991.432-.285.896-.527 1.37-.717.475-.201.97-.359 1.476-.454 1.023-.211 2.077-.211 3.089 0 .506.095 1.001.253 1.487.454.474.189.928.432 1.36.717.432.295.844.622 1.202.991.369.359.696.77.981 1.202.285.422.537.885.727 1.36.2.475.348.981.454 1.476.105.517.158 1.033.158 1.55 0 .516-.053 1.033-.158 1.539-.106.506-.253 1.012-.454 1.486-.19.475-.443.938-.727 1.36-.285.432-.612.844-.981 1.202-.358.369-.77.696-1.202.991-.432.285-.885.527-1.36.727-.485.19-.981.348-1.487.443-.506.106-1.023.16-1.539.16z"/><path d="m99.285 111.437c0-4.365 3.543-7.907 7.907-7.907 4.365 0 7.907 3.542 7.907 7.907 0 4.364-3.542 7.907-7.907 7.907-4.364.001-7.907-3.542-7.907-7.907z"/><path d="m137.988 119.345c-2.087 0-4.122-.844-5.588-2.32-.369-.358-.696-.77-.991-1.202-.285-.422-.527-.885-.727-1.36-.19-.474-.348-.98-.443-1.476-.106-.516-.159-1.033-.159-1.55s.053-1.033.159-1.55c.095-.495.253-1.001.443-1.476.2-.475.443-.938.727-1.36.295-.432.622-.843.991-1.202.358-.369.759-.695 1.202-.991.422-.285.885-.527 1.36-.717.474-.201.97-.359 1.476-.454 1.022-.211 2.077-.211 3.089 0 .506.095 1.001.253 1.486.454.475.189.938.432 1.36.717.432.295.844.622 1.202.991.369.359.696.77.981 1.202.284.422.537.885.727 1.36.2.475.358.981.453 1.476.106.517.158 1.033.158 1.55 0 .516-.053 1.033-.158 1.55-.095.496-.253 1.002-.453 1.476-.19.475-.443.938-.727 1.36-.285.432-.612.844-.981 1.202-.358.369-.77.696-1.202.991-.422.285-.885.527-1.36.717-.485.2-.98.358-1.486.453-.505.105-1.022.159-1.539.159z"/><path d="m225.646 119.345c-.517 0-1.033-.053-1.55-.159-.506-.095-1.001-.253-1.476-.443-.475-.2-.938-.443-1.37-.727-.432-.295-.833-.622-1.202-.991-1.466-1.466-2.309-3.511-2.309-5.588s.843-4.122 2.309-5.588c.369-.369.77-.695 1.202-.991.432-.285.896-.527 1.37-.717.475-.201.97-.359 1.476-.454 1.023-.211 2.077-.211 3.089 0 .506.095 1.001.253 1.487.454.474.189.928.432 1.36.717.432.295.844.622 1.202.991.369.359.696.77.981 1.202.285.422.537.885.727 1.36.2.475.348.981.454 1.476.105.517.158 1.033.158 1.55 0 .516-.053 1.033-.158 1.539-.106.506-.253 1.012-.454 1.486-.19.475-.443.938-.727 1.36-.285.432-.612.844-.981 1.202-.358.369-.77.696-1.202.991-.432.285-.885.527-1.36.727-.485.19-.981.348-1.487.443-.505.106-1.022.16-1.539.16z"/><path d="m248.524 111.437c0-4.365 3.543-7.907 7.907-7.907 4.365 0 7.907 3.542 7.907 7.907 0 4.364-3.542 7.907-7.907 7.907-4.364.001-7.907-3.542-7.907-7.907z"/><path d="m287.227 119.345c-2.087 0-4.122-.844-5.588-2.32-.369-.358-.696-.77-.991-1.202-.285-.422-.527-.885-.727-1.36-.19-.474-.348-.98-.443-1.476-.106-.516-.159-1.033-.159-1.55s.053-1.033.159-1.55c.095-.495.253-1.001.443-1.476.2-.475.443-.938.727-1.36.295-.432.622-.843.991-1.202.358-.369.759-.695 1.202-.991.422-.285.885-.527 1.36-.717.474-.201.97-.359 1.476-.454 1.022-.211 2.077-.211 3.089 0 .506.095 1.001.253 1.486.454.475.189.938.432 1.36.717.432.295.844.622 1.202.991.369.359.696.77.981 1.202.284.422.537.885.727 1.36.2.475.358.981.453 1.476.106.517.158 1.033.158 1.55 0 .516-.053 1.033-.158 1.55-.095.496-.253 1.002-.453 1.476-.19.475-.443.938-.727 1.36-.285.432-.612.844-.981 1.202-.358.369-.77.696-1.202.991-.422.285-.885.527-1.36.717-.485.2-.98.358-1.486.453-.505.105-1.022.159-1.539.159z"/><path d="m374.886 119.345c-.517 0-1.033-.053-1.55-.159-.506-.095-1.001-.253-1.476-.443-.475-.2-.938-.443-1.37-.727-.432-.295-.833-.622-1.202-.991-1.466-1.466-2.309-3.511-2.309-5.588s.843-4.122 2.309-5.588c.369-.369.77-.695 1.202-.991.432-.285.896-.527 1.37-.717.475-.201.97-.359 1.476-.454 1.023-.211 2.077-.211 3.089 0 .506.095 1.001.253 1.487.454.474.189.928.432 1.36.717.432.295.844.622 1.202.991.369.359.696.77.981 1.202.285.422.537.885.727 1.36.2.475.348.981.454 1.476.105.517.158 1.033.158 1.55 0 .516-.053 1.033-.158 1.539-.106.506-.253 1.012-.454 1.486-.19.475-.443.938-.727 1.36-.285.432-.612.844-.981 1.202-.358.369-.77.696-1.202.991-.432.285-.885.527-1.36.727-.485.19-.981.348-1.487.443-.506.106-1.023.16-1.539.16z"/><path d="m397.763 111.437c0-4.365 3.543-7.907 7.907-7.907 4.365 0 7.907 3.542 7.907 7.907 0 4.364-3.542 7.907-7.907 7.907-4.364.001-7.907-3.542-7.907-7.907z"/><path d="m436.467 119.345c-2.087 0-4.122-.844-5.588-2.32-.369-.358-.696-.77-.991-1.202-.285-.422-.527-.885-.727-1.36-.19-.474-.348-.98-.443-1.476-.106-.516-.159-1.033-.159-1.55s.053-1.033.159-1.55c.095-.495.253-1.001.443-1.476.2-.475.443-.938.727-1.36.295-.432.622-.843.991-1.202.358-.369.759-.695 1.202-.991.422-.285.885-.527 1.36-.717.474-.201.97-.359 1.476-.454 1.022-.211 2.077-.211 3.089 0 .506.095 1.001.253 1.486.454.475.189.938.432 1.36.717.432.295.844.622 1.202.991.369.359.696.77.981 1.202.284.422.537.885.727 1.36.2.475.358.981.453 1.476.106.517.158 1.033.158 1.55 0 .516-.053 1.033-.158 1.55-.095.496-.253 1.002-.453 1.476-.19.475-.443.938-.727 1.36-.285.432-.612.844-.981 1.202-.358.369-.77.696-1.202.991-.422.285-.885.527-1.36.717-.485.2-.98.358-1.486.453-.506.105-1.023.159-1.539.159z"/></g><path d="m128.005 237.104c-1.978 0-3.957-.755-5.466-2.264-3.019-3.018-3.019-7.913 0-10.931l42.808-42.809c3.018-3.018 7.913-3.018 10.931 0 3.019 3.018 3.019 7.913 0 10.932l-42.808 42.809c-1.508 1.509-3.486 2.263-5.465 2.263z" fill="#a698a6"/><path d="m384.316 237.104c-1.978 0-3.957-.754-5.466-2.264l-42.808-42.809c-3.019-3.018-3.019-7.913 0-10.932 3.018-3.018 7.913-3.019 10.931 0l42.808 42.809c3.019 3.018 3.019 7.913 0 10.931-1.508 1.511-3.486 2.265-5.465 2.265z" fill="#a698a6"/><path d="m256.161 244.628c-4.269 0-7.73-3.461-7.73-7.73v-50.332c0-4.269 3.461-7.73 7.73-7.73s7.73 3.461 7.73 7.73v50.332c0 4.269-3.461 7.73-7.73 7.73z" fill="#a698a6"/><path d="m438.115 448.691h-328.112c-23.755 0-43.011-19.257-43.011-43.011v-13.287c0-23.754 19.257-43.011 43.011-43.011h328.112s-10.679 26.746-10.679 49.655c.001 22.908 10.679 49.654 10.679 49.654z" fill="#eedfda"/><path d="m438.115 349.381h-37.644s-10.679 26.746-10.679 49.655 10.679 49.655 10.679 49.655h37.644s-10.679-26.746-10.679-49.655c.001-22.909 10.679-49.655 10.679-49.655z" fill="#ded0cb"/><path d="m445.008 456.42h-335.005c-27.979 0-50.741-22.762-50.741-50.741v-13.287c0-27.979 22.762-50.741 50.741-50.741h335.005c4.269 0 7.73 3.461 7.73 7.73s-3.461 7.73-7.73 7.73h-335.005c-19.454 0-35.282 15.827-35.282 35.282v13.287c0 19.454 15.827 35.281 35.282 35.281h335.005c4.269 0 7.73 3.461 7.73 7.73s-3.461 7.729-7.73 7.729z" fill="#80499e"/><path d="m174.094 471.644-22.192-16.23-22.192 16.23c-2.073 1.516-4.991.036-4.991-2.533v-75.613h54.365v75.613c.001 2.569-2.916 4.049-4.99 2.533z" fill="#fa9801"/><path d="m151.902 393.498v61.916l22.192 16.23c2.073 1.516 4.991.036 4.991-2.533v-75.613z" fill="#f88604"/><path d="m279.742 401.228h-164.642c-4.269 0-7.73-3.461-7.73-7.73s3.461-7.73 7.73-7.73h164.642c4.269 0 7.73 3.461 7.73 7.73s-3.461 7.73-7.73 7.73z" fill="#c9beb9"/><path d="m318.624 427.613h-95.008c-4.269 0-7.73-3.461-7.73-7.73s3.461-7.73 7.73-7.73h95.008c4.269 0 7.73 3.461 7.73 7.73s-3.461 7.73-7.73 7.73z" fill="#c9beb9"/></svg>