<svg height="464pt" viewBox="0 -24 464 464" width="464pt" xmlns="http://www.w3.org/2000/svg"><path d="m416 231.847656c0 101.621094-82.378906 184-184 184s-184-82.378906-184-184 82.378906-184 184-184 184 82.378906 184 184zm0 0" fill="#57b7eb"/><path d="m280 335.847656c-57.914062 0-112.449219-27.269531-147.199219-73.601562-34.75-46.332032-45.65625-106.320313-29.441406-161.917969-55.148437 53.910156-70.824219 136.492187-39.265625 206.859375 31.554688 70.371094 103.644531 113.59375 180.582031 108.277344 76.9375-5.320313 142.394531-58.054688 163.964844-132.097656-34.332031 33.695312-80.535156 52.546874-128.640625 52.480468zm0 0" fill="#4891d3"/><path d="m136 255.847656 48-40-48-32 24-72-37.359375-28c-47.695313 35.25-75.472656 91.328125-74.617187 150.628906.855468 59.300782 30.242187 114.550782 78.9375 148.410157l65.039062-79.039063zm0 0" fill="#a1d51c"/><path d="m192 127.847656 48 8 24-56-6.71875-30.242187c-21.304688-2.972657-42.96875-2.1875-64 2.320312l14.71875 43.921875zm0 0" fill="#a1d51c"/><path d="m325.679688 73.445312-29.679688 54.402344-40 48 40 16-16 48 80 16-32 64 44.320312 31.039063c35.089844-41.351563 50.152344-96.078125 41.164063-149.558594-8.992187-53.484375-41.121094-100.277344-87.804687-127.882813zm0 0" fill="#a1d51c"/><path d="m216 383.847656-6.800781 30.558594c7.566406.925781 15.179687 1.40625 22.800781 1.441406 26.898438.019532 53.476562-5.878906 77.839844-17.28125l-37.839844-22.71875zm0 0" fill="#7ab92d"/><path d="m96 151.847656c-.015625-17.410156 2.460938-34.734375 7.359375-51.441406-39.125 38.40625-59.085937 92.257812-54.441406 146.886719 4.640625 54.625 33.398437 104.339843 78.441406 135.59375l59.679687-72.480469c-56.316406-32.96875-90.957031-93.300781-91.039062-158.558594zm0 0" fill="#7ab92d"/><path d="m372.320312 350.886719c16.652344-19.707031 28.996094-42.675781 36.238282-67.441407-20.058594 19.59375-44.328125 34.34375-70.957032 43.121094zm0 0" fill="#7ab92d"/><path d="m464 295.847656-232-16-232 16v32l200-13.839844c1.976562 16.039063 15.601562 28.085938 31.761719 28.085938 16.160156 0 29.78125-12.046875 31.757812-28.085938l200.480469 13.839844zm0 0" fill="#cc5144"/><path d="m440 247.847656-122.640625-29.199218c-29.085937-6.925782-59.722656-2.1875-85.359375 13.199218v48l208 16zm0 0" fill="#fcbc04"/><path d="m24 247.847656 122.640625-29.199218c29.085937-6.925782 59.722656-2.1875 85.359375 13.199218v48l-208 16zm0 0" fill="#fcbc04"/><path d="m317.359375 218.648438c-29.085937-6.925782-59.722656-2.1875-85.359375 13.199218v24c25.636719-15.386718 56.273438-20.125 85.359375-13.199218l122.640625 29.199218v-24zm0 0" fill="#f9e109"/><path d="m146.640625 218.648438-122.640625 29.199218v24l122.640625-29.199218c29.085937-6.925782 59.722656-2.1875 85.359375 13.199218v-24c-25.636719-15.386718-56.273438-20.125-85.359375-13.199218zm0 0" fill="#f9e109"/><path d="m464 295.847656-232-16-232 16v16l202-13.921875c3.621094-.265625 7.191406.988281 9.847656 3.464844 2.65625 2.472656 4.164063 5.945313 4.152344 9.574219-.316406 8.125 5.308594 15.277344 13.28125 16.882812 4.691406.808594 9.496094-.511718 13.117188-3.605468 3.617187-3.09375 5.671874-7.636719 5.601562-12.394532-.011719-3.859375 1.589844-7.546875 4.414062-10.175781 2.824219-2.625 6.617188-3.953125 10.464844-3.664063l201.121094 13.839844zm0 0" fill="#f8664f"/><g fill="#57b7eb"><path d="m402.878906 95.046875c-2.378906.003906-4.636718-1.050781-6.160156-2.878906-58.28125-68.472657-152.820312-93.785157-237.519531-63.601563-4.175781 1.503906-8.777344-.664062-10.277344-4.839844-1.503906-4.175781.664063-8.777343 4.839844-10.28125 91.015625-32.351562 192.5625-5.136718 255.199219 68.402344 2.027343 2.371094 2.492187 5.710938 1.1875 8.546875-1.308594 2.835938-4.144532 4.652344-7.269532 4.652344zm0 0"/><path d="m455.28125 223.847656c-4.210938.007813-7.707031-3.242187-8-7.441406-1.351562-19.605469-5.390625-38.933594-12-57.441406-1.480469-4.171875.703125-8.757813 4.878906-10.238282 4.175782-1.480468 8.757813.703126 10.238282 4.878907 7.046874 19.886719 11.355468 40.636719 12.800781 61.679687.324219 4.335938-2.871094 8.140625-7.199219 8.5625zm0 0"/><path d="m8.800781 223.847656h-.800781c-4.390625-.339844-7.679688-4.167968-7.359375-8.5625 4.625-62.03125 33.863281-119.640625 81.199219-160 3.378906-2.847656 8.429687-2.417968 11.28125.960938 2.847656 3.378906 2.417968 8.429687-.960938 11.28125-43.972656 37.597656-71.125 91.1875-75.441406 148.878906-.292969 4.167969-3.742188 7.410156-7.917969 7.441406zm0 0"/></g></svg>